<svg version="1.1" id="Layer_1" xmlns="http://www.w3.org/2000/svg" xmlns:xlink="http://www.w3.org/1999/xlink" x="0px" y="0px"
	 width="100%" viewBox="0 0 496 496" enable-background="new 0 0 496 496" xml:space="preserve">
<path fill="#000000" opacity="1.000000" stroke="none" 
	d="
M391.852661,255.082489 
	C390.899963,260.258942 387.742737,260.285065 383.873932,259.348145 
	C355.283752,252.424347 326.659821,245.638718 298.095490,238.610611 
	C294.094147,237.626114 291.657806,238.115768 288.818817,241.505981 
	C284.422089,246.756409 278.203979,248.884506 271.277435,247.475037 
	C264.603668,246.116989 257.916718,244.712540 251.375366,242.840179 
	C240.759705,239.801666 235.151352,229.286987 237.957352,218.391693 
	C240.602615,208.120529 251.353088,202.358093 262.995239,205.038193 
	C268.178772,206.231476 273.341888,207.518417 278.494873,208.838455 
	C286.414429,210.867218 291.889771,215.558624 293.561249,223.761063 
	C294.269989,227.239075 296.032806,228.690842 299.353973,229.453857 
	C311.988312,232.356522 324.553589,235.559204 337.180542,238.495453 
	C339.026520,238.924698 340.959137,239.978622 342.979980,239.037811 
	C343.995575,237.820892 343.653473,236.497635 343.386963,235.204514 
	C336.277863,200.714523 305.144653,173.572220 269.843170,170.153305 
	C227.281296,166.031189 192.340622,193.698257 181.599899,228.230850 
	C181.304108,229.181824 181.121201,230.200607 180.649216,231.057541 
	C179.539276,233.072693 177.947418,234.673889 175.444611,233.927841 
	C172.781769,233.134064 171.932968,230.964539 172.454254,228.379349 
	C173.380432,223.786331 175.122620,219.446365 177.020172,215.188385 
	C193.690079,177.782471 232.196579,158.049911 268.199829,160.983368 
	C311.872131,164.541672 345.427521,194.532654 352.975128,238.268570 
	C353.586517,241.811310 355.254486,242.892975 358.257324,243.594086 
	C367.804871,245.823196 377.302246,248.267242 386.849915,250.495697 
	C389.343109,251.077606 391.203796,252.070999 391.852661,255.082489 
z"/>
<path fill="#000000" opacity="1.000000" stroke="none" 
	d="
M294.307617,330.304230 
	C320.027222,318.471588 336.253571,299.176453 343.074158,272.040802 
	C343.317505,271.072632 343.560730,270.103241 343.845703,269.146881 
	C344.616699,266.559265 346.323669,265.209473 349.056580,265.558044 
	C352.215424,265.960846 352.560944,268.397369 352.260620,270.809814 
	C351.369110,277.971283 349.111481,284.794037 346.060608,291.274933 
	C331.590851,322.012390 306.980865,339.406128 273.879883,345.022827 
	C268.084045,346.006287 262.001434,346.982269 256.009644,345.607910 
	C253.763062,345.092590 252.148300,346.335388 250.475372,347.366180 
	C234.873489,356.979248 219.314377,366.662018 203.681000,376.223419 
	C201.264206,377.701508 198.848404,380.460510 195.583252,378.240173 
	C192.618088,376.223877 193.464432,373.103210 193.500275,370.071198 
	C193.701187,353.074463 193.660629,336.074982 193.752640,319.076691 
	C193.763474,317.073517 192.879456,315.625336 191.642517,314.190338 
	C179.108185,299.649139 171.670898,282.863739 169.645248,263.745789 
	C169.295441,260.444336 167.703339,258.901825 164.411224,258.151764 
	C152.257095,255.382629 140.167847,252.328201 128.059540,249.359238 
	C126.778160,249.045044 125.434334,248.769318 124.291237,248.155746 
	C122.362396,247.120453 121.384033,245.390137 121.871826,243.151001 
	C122.412010,240.671371 124.558281,240.087936 126.518723,240.271332 
	C129.479553,240.548264 132.401962,241.345963 135.311523,242.043915 
	C159.232010,247.781952 183.153763,253.515305 207.052429,259.343170 
	C210.417770,260.163818 212.699844,259.812988 215.178207,256.812256 
	C220.497620,250.371780 227.833405,249.277924 235.651321,251.094971 
	C247.800842,253.918777 259.923767,256.858704 272.040192,259.822021 
	C274.849670,260.509155 278.038849,261.462280 276.991760,265.294861 
	C276.034363,268.799377 273.097565,268.067719 270.367249,267.416199 
	C263.288727,265.727081 256.182678,264.153229 249.093079,262.534607 
	C247.679352,268.883087 248.158279,269.691925 253.562302,270.995087 
	C258.737640,272.243103 263.907959,273.512177 269.073364,274.800629 
	C271.658875,275.445526 274.105652,276.514008 273.454376,279.757233 
	C272.770447,283.163177 269.987671,282.880310 267.456635,282.319702 
	C262.262939,281.169250 257.016846,280.145905 251.949295,278.566528 
	C247.119827,277.061371 244.820984,278.971771 243.452621,283.641663 
	C249.031952,286.160400 255.019394,286.775360 260.678040,288.478516 
	C262.426483,289.004791 264.240814,289.310272 266.020844,289.734314 
	C268.557007,290.338470 270.523926,291.709625 269.953552,294.542450 
	C269.342957,297.575226 266.657684,297.612061 264.318726,297.162018 
	C260.405396,296.408997 256.560455,295.305176 252.678711,294.382782 
	C243.942703,292.306915 235.194000,290.283936 226.465042,288.178955 
	C217.922729,286.118988 212.164322,281.164459 210.756424,272.184021 
	C210.354980,269.623291 208.854294,268.919647 206.823166,268.426849 
	C198.908905,266.506683 190.996323,264.579529 183.079041,262.671844 
	C179.816025,261.885620 177.927597,262.285156 178.706009,266.534515 
	C181.370865,281.081696 186.547562,294.733368 196.554993,305.555817 
	C203.384750,312.941772 203.578903,320.798340 202.816483,329.538391 
	C201.789520,341.311127 202.530228,353.085449 202.360626,364.854858 
	C205.348557,365.515900 206.917908,363.738922 208.662552,362.667206 
	C221.296478,354.906189 233.920593,347.127655 246.459869,339.215332 
	C249.419266,337.347931 252.406738,336.498260 255.882065,336.705750 
	C269.033844,337.491028 281.771301,335.602570 294.307617,330.304230 
M226.554245,280.068054 
	C231.565475,281.623810 235.408539,279.536407 238.293869,275.752167 
	C240.833694,272.421112 241.680984,268.585541 239.498596,264.558594 
	C237.010864,259.968231 232.506165,257.605927 227.513611,258.350189 
	C222.836914,259.047363 219.118744,262.840179 218.406662,267.639862 
	C217.631073,272.867828 219.916275,276.583618 226.554245,280.068054 
z"/>
<path fill="#000000" opacity="1.000000" stroke="none" 
	d="
M372.275757,207.842972 
	C368.593872,213.215546 363.117645,214.780670 356.890594,216.689636 
	C357.901794,211.865784 362.282562,212.222366 364.518341,209.514130 
	C362.364777,209.514130 360.604309,209.407684 358.862518,209.542572 
	C356.930786,209.692200 354.676697,210.793335 353.498749,208.471771 
	C352.331635,206.171616 354.697968,204.984940 355.757629,203.423752 
	C356.485046,202.352081 357.234741,201.295517 358.100281,200.051361 
	C354.991272,199.476578 353.032623,203.338516 349.844879,201.411972 
	C350.007050,198.099686 353.048981,198.034149 354.960999,196.875656 
	C357.082489,195.590271 359.364990,194.566696 361.597839,193.470779 
	C362.839111,192.861542 364.119659,192.490265 365.217957,193.766556 
	C366.463806,195.214371 365.861542,196.531754 364.870514,197.788513 
	C362.841583,200.361481 360.243652,202.508896 358.742981,205.924103 
	C363.236115,207.479965 368.317841,203.167023 372.275757,207.842972 
z"/>
<path fill="#000000" opacity="1.000000" stroke="none" 
	d="
M330.599854,178.026459 
	C327.428589,175.762711 329.086853,172.717484 328.764130,170.057053 
	C328.549103,168.284698 328.723297,166.465118 328.723297,164.204544 
	C325.090118,165.510727 324.708069,170.492889 319.490814,170.416458 
	C321.756927,164.745682 325.382294,160.714035 329.338684,157.354843 
	C331.502747,155.517441 332.635223,158.079788 332.623718,160.405090 
	C332.606659,163.847946 332.619293,167.290955 332.619293,171.081009 
	C335.734863,169.117279 336.585480,165.208588 340.126038,164.282303 
	C340.986389,167.848358 336.573517,174.369873 330.599854,178.026459 
z"/>
<path fill="#000000" opacity="1.000000" stroke="none" 
	d="
M286.651459,144.272766 
	C287.379486,141.743958 286.810577,138.929291 289.612030,137.645599 
	C290.885040,140.122742 289.316101,152.161377 287.525421,153.506546 
	C285.387329,155.112717 284.167847,153.658478 283.315948,151.861832 
	C281.848053,148.766052 280.487030,145.619583 279.018158,142.354309 
	C276.993896,143.880951 277.655029,145.977112 276.901031,147.535355 
	C276.217529,148.947983 276.717804,150.962982 274.841858,151.774963 
	C273.190216,151.662720 272.915619,150.534271 273.141144,149.325867 
	C273.838470,145.589752 274.633301,141.871368 275.428711,138.154312 
	C275.706635,136.855560 275.999939,135.377441 277.609894,135.184174 
	C279.466248,134.961334 280.103973,136.500381 280.744049,137.857178 
	C282.216766,140.978989 283.664337,144.112656 285.141785,147.283707 
	C286.394226,146.560959 286.360199,145.514893 286.651459,144.272766 
z"/>
<path fill="#000000" opacity="1.000000" stroke="none" 
	d="
M352.402466,184.252563 
	C350.054260,188.001556 349.071991,192.189468 344.671692,195.982239 
	C345.493866,188.520309 343.851166,183.530548 335.678650,184.340027 
	C337.986359,181.365616 350.262146,176.568298 352.488495,177.697327 
	C356.097565,179.527588 353.138519,181.813126 352.402466,184.252563 
z"/>
<path fill="#000000" opacity="1.000000" stroke="none" 
	d="
M244.703735,147.438232 
	C245.311523,149.264496 245.473175,150.652847 244.224899,151.869537 
	C236.737045,145.231400 236.263306,145.329956 233.939819,153.809769 
	C231.999069,154.148117 231.839325,152.655670 231.528534,151.396729 
	C230.972595,149.144699 230.439178,146.885559 229.966782,144.614746 
	C228.508072,137.602676 229.947250,135.836380 237.236923,135.783310 
	C240.910126,135.756592 243.413269,137.214706 243.273239,141.320175 
	C243.203049,143.378250 243.537766,145.275711 244.703735,147.438232 
M235.384964,144.036758 
	C236.922485,143.643661 238.814117,143.874237 239.490845,141.903946 
	C239.787781,141.039429 239.439270,140.186249 238.637390,139.806122 
	C237.079880,139.067734 235.228058,138.836868 233.998322,140.033493 
	C232.643280,141.352081 232.807068,142.999603 235.384964,144.036758 
z"/>
<path fill="#000000" opacity="1.000000" stroke="none" 
	d="
M154.570557,233.992203 
	C150.668243,233.164474 147.167587,232.117844 143.606277,231.353897 
	C140.430634,230.672684 139.034241,229.233780 139.845139,225.792114 
	C141.155151,220.232040 143.957245,216.632019 147.065262,217.991837 
	C150.579239,219.529266 154.187714,220.115234 157.776932,221.056015 
	C158.269684,221.185165 158.598846,221.938507 158.924332,222.311783 
	C158.328033,224.090195 157.164276,223.939514 155.986694,223.658340 
	C153.478073,223.059357 152.228104,224.413300 151.565796,226.551773 
	C150.933670,228.592758 151.430786,230.055481 153.680252,230.829575 
	C155.002655,231.284683 156.921356,231.898438 154.570557,233.992203 
M145.243301,221.930008 
	C144.138184,223.018265 143.495636,224.329102 143.412079,225.882248 
	C143.350616,227.024567 143.998642,227.738693 144.980576,228.166519 
	C145.774506,228.512405 146.540024,228.548004 147.281754,227.924362 
	C149.402161,226.141541 148.703751,223.041550 145.243301,221.930008 
z"/>
<path fill="#000000" opacity="1.000000" stroke="none" 
	d="
M198.283371,157.655396 
	C201.248627,160.068619 204.998856,161.087692 207.435638,166.103485 
	C199.555756,163.243240 195.393433,165.376938 195.186966,173.216400 
	C192.048538,171.843597 192.259521,169.318207 191.781357,167.249451 
	C191.225037,164.842529 190.898972,162.383392 190.410950,159.959396 
	C190.059036,158.211517 189.008286,156.250061 190.924316,154.957977 
	C192.757309,153.721924 194.355988,155.188553 195.894806,156.116989 
	C196.602295,156.543854 197.286346,157.009552 198.283371,157.655396 
z"/>
<path fill="#000000" opacity="1.000000" stroke="none" 
	d="
M253.991241,150.032837 
	C251.255112,151.717926 250.571136,150.411774 251.325455,148.329117 
	C252.847717,144.126160 254.627670,140.009094 256.471771,135.933716 
	C257.225311,134.268448 258.519440,133.234283 260.383209,134.859924 
	C262.072784,136.333633 266.346985,147.898056 266.177277,151.325394 
	C262.331085,148.928680 258.709625,143.994125 253.991241,150.032837 
z"/>
<path fill="#000000" opacity="1.000000" stroke="none" 
	d="
M157.171783,202.312744 
	C159.010864,201.062622 160.039337,201.434067 159.806290,203.399582 
	C159.676071,204.497757 158.882248,205.504807 158.475433,206.586014 
	C158.034012,207.759201 157.006622,209.085449 158.755417,210.031815 
	C160.724304,211.097275 161.321640,209.420044 162.139343,208.205139 
	C163.175674,206.665405 163.282761,204.276611 165.818802,204.034271 
	C166.580109,206.762894 163.849701,213.715729 161.734497,214.561127 
	C160.253036,215.153229 147.427460,209.339981 147.382416,207.698196 
	C147.266022,203.455429 149.422195,200.167862 152.382843,197.155334 
	C154.752960,199.453903 152.948517,200.947754 152.479660,202.529541 
	C152.047638,203.987106 150.252090,205.694534 152.488663,206.820663 
	C154.769730,207.969208 154.990509,205.441162 155.881195,204.238922 
	C156.274292,203.708344 156.591736,203.121719 157.171783,202.312744 
z"/>
<path fill="#000000" opacity="1.000000" stroke="none" 
	d="
M361.891968,231.811462 
	C361.507294,230.317719 361.197754,229.202103 360.934753,228.075623 
	C360.746643,227.269943 360.241882,226.271942 360.526947,225.663773 
	C362.982147,220.426041 368.666595,221.904724 372.761993,220.035812 
	C374.931244,219.045868 377.050934,219.695801 377.626434,222.550049 
	C378.178528,225.287949 380.241455,227.873138 378.725555,231.135452 
	C375.751495,230.291687 376.030487,227.836014 375.337585,225.966843 
	C374.888885,224.756485 374.466339,223.197296 372.657715,223.775772 
	C371.254395,224.224625 371.403900,225.563446 371.541565,226.731598 
	C371.740570,228.420074 373.059845,230.157776 371.326904,231.781693 
	C369.469208,231.887741 369.315063,230.380096 368.743713,229.252792 
	C368.004303,227.793945 368.203522,224.898148 365.583618,225.864380 
	C363.345184,226.689911 364.539856,228.959473 364.952087,230.679993 
	C365.263550,231.979797 365.552643,233.281418 364.589478,234.489349 
	C362.683899,234.897095 362.601959,233.235916 361.891968,231.811462 
z"/>
<path fill="#000000" opacity="1.000000" stroke="none" 
	d="
M175.821625,191.626770 
	C173.040421,197.326233 172.037399,198.133652 168.088257,198.047546 
	C167.921829,194.657578 173.134155,193.973083 172.129166,190.182602 
	C170.163620,188.743454 169.004623,190.521973 167.762238,191.343048 
	C165.290451,192.976547 162.803116,194.367767 159.985641,192.430176 
	C158.193939,191.198013 157.558548,189.274033 158.306137,187.128067 
	C159.353256,184.122299 160.665421,181.340485 164.691238,181.070511 
	C165.790665,184.552841 161.183517,185.614563 161.920258,188.896805 
	C164.292114,190.719223 165.662659,188.223434 167.279419,187.258636 
	C172.170929,184.339661 174.650528,185.442459 175.821625,191.626770 
z"/>
<path fill="#000000" opacity="1.000000" stroke="none" 
	d="
M221.689575,157.790741 
	C215.073242,161.689667 211.779343,160.728470 208.893570,154.033859 
	C207.748993,151.378586 205.695145,148.756851 206.580215,145.174377 
	C209.881256,145.752625 210.004623,148.245743 210.932846,150.023849 
	C211.851929,151.784378 212.465790,153.738708 213.583084,155.352112 
	C214.827271,157.148758 216.758179,157.042328 218.483490,155.979950 
	C220.242310,154.896973 220.691269,153.380508 220.038391,151.263260 
	C219.034592,148.007950 216.079666,145.143372 217.508682,141.088013 
	C222.810028,144.379044 224.836731,152.304840 221.689575,157.790741 
z"/>
<path fill="#000000" opacity="1.000000" stroke="none" 
	d="
M179.277283,167.274689 
	C176.722229,169.651093 178.203964,171.119415 179.725281,172.911575 
	C181.844315,175.407898 185.329102,177.007889 185.704620,181.059174 
	C182.908676,182.079285 181.918091,179.960373 180.632309,178.668900 
	C175.580597,173.594818 175.602585,173.572922 169.610306,174.750290 
	C169.688263,171.753571 175.574417,164.715393 178.161514,164.668091 
	C179.811798,164.637909 180.099289,165.630371 179.277283,167.274689 
z"/>
<path fill="#000000" opacity="1.000000" stroke="none" 
	d="
M309.372833,147.672485 
	C306.357269,146.758713 305.650513,148.671890 304.671967,150.506714 
	C303.164825,153.332535 303.002045,156.942337 299.827087,159.213196 
	C297.522888,156.556824 299.404816,154.402420 300.275726,152.341629 
	C301.822998,148.680267 304.181396,145.051712 298.631348,142.449112 
	C301.449036,141.066162 310.710449,143.661560 311.607544,145.899338 
	C312.271606,147.555984 311.072662,147.864044 309.372833,147.672485 
z"/>
</svg>