<?xml version="1.0" encoding="UTF-8"?>
<!DOCTYPE svg PUBLIC "-//W3C//DTD SVG 1.1//EN" "http://www.w3.org/Graphics/SVG/1.1/DTD/svg11.dtd">
<svg xmlns="http://www.w3.org/2000/svg" version="1.1" width="500px" height="500px" style="shape-rendering:geometricPrecision; text-rendering:geometricPrecision; image-rendering:optimizeQuality; fill-rule:evenodd; clip-rule:evenodd" xmlns:xlink="http://www.w3.org/1999/xlink">
<g><path style="opacity:0.907" fill="#ff6f6d" d="M 261.5,141.5 C 262.01,144.388 261.344,146.721 259.5,148.5C 259.5,147.5 259.5,146.5 259.5,145.5C 259.665,142.15 259.498,138.817 259,135.5C 258.209,136.745 257.709,138.078 257.5,139.5C 256.897,137.374 256.897,135.041 257.5,132.5C 258.688,131.316 259.855,131.316 261,132.5C 261.498,135.482 261.665,138.482 261.5,141.5 Z"/></g>
<g><path style="opacity:0.251" fill="#ffdcdc" d="M 259.5,145.5 C 258.833,143.5 258.167,141.5 257.5,139.5C 257.709,138.078 258.209,136.745 259,135.5C 259.498,138.817 259.665,142.15 259.5,145.5 Z"/></g>
<g><path style="opacity:0.952" fill="#ff9590" d="M 295.5,138.5 C 296.822,138.33 297.989,138.663 299,139.5C 300.012,143.883 301.179,148.216 302.5,152.5C 304.089,149.579 305.589,146.579 307,143.5C 307.667,142.167 308.333,142.167 309,143.5C 308.205,148.946 306.371,154.113 303.5,159C 301.892,159.658 300.725,159.158 300,157.5C 298.842,153.203 297.842,148.869 297,144.5C 295.448,148.333 293.615,152 291.5,155.5C 290.5,155.167 289.833,154.5 289.5,153.5C 291.508,148.471 293.508,143.471 295.5,138.5 Z"/></g>
<g><path style="opacity:0.916" fill="#ff9995" d="M 257.5,132.5 C 256.897,135.041 256.897,137.374 257.5,139.5C 257.169,143.825 255.502,147.492 252.5,150.5C 249.572,146.983 247.406,142.983 246,138.5C 245.362,141.536 245.528,144.536 246.5,147.5C 246.473,149.704 245.473,150.538 243.5,150C 242.361,144.584 242.194,139.084 243,133.5C 244.333,132.167 245.667,132.167 247,133.5C 248.552,137.333 250.385,141 252.5,144.5C 254.19,140.409 255.856,136.409 257.5,132.5 Z"/></g>
<g><path style="opacity:0.925" fill="#ff928e" d="M 276.5,134.5 C 277.833,134.5 279.167,134.5 280.5,134.5C 281.833,140.5 283.167,146.5 284.5,152.5C 281.09,152.616 279.756,150.95 280.5,147.5C 278.08,147.708 275.747,147.374 273.5,146.5C 272.64,148.931 270.973,150.264 268.5,150.5C 268.343,149.127 268.51,147.793 269,146.5C 271.761,142.64 274.261,138.64 276.5,134.5 Z M 277.5,139.5 C 278.339,140.641 279.006,141.974 279.5,143.5C 278.167,144.833 276.833,144.833 275.5,143.5C 276.18,142.14 276.847,140.807 277.5,139.5 Z"/></g>
<g><path style="opacity:0.954" fill="#ff9691" d="M 212.5,140.5 C 219.915,138.863 224.248,141.696 225.5,149C 223.78,155.543 219.447,158.71 212.5,158.5C 211.134,153.427 209.468,148.427 207.5,143.5C 209.145,142.304 210.811,141.304 212.5,140.5 Z M 213.5,143.5 C 220.693,142.847 223.193,145.847 221,152.5C 219.333,153.5 217.667,154.5 216,155.5C 214.301,152.065 212.801,148.565 211.5,145C 212.416,144.722 213.082,144.222 213.5,143.5 Z"/></g>
<g><path style="opacity:0.204" fill="#ffd9d8" d="M 261.5,141.5 C 262.473,143.948 262.806,146.615 262.5,149.5C 261.209,149.737 260.209,149.404 259.5,148.5C 261.344,146.721 262.01,144.388 261.5,141.5 Z"/></g>
<g><path style="opacity:0.94" fill="#ff9490" d="M 195.5,149.5 C 204.638,151.753 207.138,157.087 203,165.5C 198.018,169.588 193.351,169.254 189,164.5C 185.389,156.763 187.555,151.763 195.5,149.5 Z M 193.5,153.5 C 198.296,153.124 201.296,155.291 202.5,160C 199.118,165.932 195.285,166.432 191,161.5C 190.018,158.225 190.851,155.559 193.5,153.5 Z"/></g>
<g><path style="opacity:0.954" fill="#ff928d" d="M 323.5,151.5 C 325.252,151.418 326.252,152.251 326.5,154C 325.337,159.479 324.337,164.979 323.5,170.5C 322.5,170.5 321.5,170.5 320.5,170.5C 320.069,162.793 316.402,160.459 309.5,163.5C 309.281,162.325 309.614,161.325 310.5,160.5C 315.074,157.724 319.407,154.724 323.5,151.5 Z M 321.5,156.5 C 322.94,158.42 322.607,160.087 320.5,161.5C 319.5,161.167 318.833,160.5 318.5,159.5C 319.77,158.712 320.77,157.712 321.5,156.5 Z"/></g>
<g><path style="opacity:0.999" fill="#f65450" d="M 291.5,222.5 C 291.077,224.781 291.744,226.448 293.5,227.5C 309.299,230.7 324.965,234.367 340.5,238.5C 341.209,239.404 342.209,239.737 343.5,239.5C 343.737,238.209 343.404,237.209 342.5,236.5C 331.666,194.006 304.333,171.006 260.5,167.5C 218.847,170.659 191.347,191.992 178,231.5C 174.01,233.503 171.51,232.337 170.5,228C 182.907,189.266 209.241,166.599 249.5,160C 292.566,157.137 324.066,174.637 344,212.5C 347.848,221.732 350.682,231.232 352.5,241C 364.505,244.001 376.505,247.001 388.5,250C 391.581,254.258 390.581,257.091 385.5,258.5C 354.096,251.086 322.763,243.42 291.5,235.5C 286.902,242.084 280.569,245.751 272.5,246.5C 262.982,244.621 253.649,242.121 244.5,239C 232.707,227.973 232.707,216.973 244.5,206C 247.963,204.2 251.63,203.034 255.5,202.5C 264.233,204.35 272.9,206.517 281.5,209C 286.98,211.971 290.314,216.471 291.5,222.5 Z"/></g>
<g><path style="opacity:0.969" fill="#ff9591" d="M 334.5,165.5 C 339.855,164.345 344.022,166.012 347,170.5C 347.798,172.259 347.631,173.926 346.5,175.5C 344.812,173.971 343.479,172.137 342.5,170C 338.543,167.615 335.376,168.448 333,172.5C 332.153,176.472 333.653,179.138 337.5,180.5C 338.5,180.167 339.167,179.5 339.5,178.5C 338.05,177.15 337.383,175.484 337.5,173.5C 344.485,175.293 345.152,178.46 339.5,183C 331.492,182.647 328.325,178.48 330,170.5C 331.707,168.963 333.207,167.296 334.5,165.5 Z"/></g>
<g><path style="opacity:0.927" fill="#ff8e8a" d="M 172.5,165.5 C 180.118,163.637 184.785,166.471 186.5,174C 186.094,179.574 183.094,182.741 177.5,183.5C 170.142,182.116 167.308,177.782 169,170.5C 169.997,168.677 171.164,167.01 172.5,165.5 Z M 174.5,168.5 C 179.067,168.056 182.067,170.056 183.5,174.5C 180.556,181.343 176.723,182.009 172,176.5C 171.018,173.225 171.851,170.559 174.5,168.5 Z"/></g>
<g><path style="opacity:0.974" fill="#ff908c" d="M 353.5,181.5 C 354.552,181.351 355.552,181.517 356.5,182C 358.694,184.695 360.694,187.528 362.5,190.5C 361.635,191.583 360.635,191.749 359.5,191C 357.707,189.22 356.04,187.387 354.5,185.5C 353.5,186 352.5,186.5 351.5,187C 353.249,189.086 354.583,191.419 355.5,194C 355.167,194.5 354.833,195 354.5,195.5C 352.308,194.141 350.641,192.308 349.5,190C 347.799,189.655 346.466,190.322 345.5,192C 347.53,193.896 349.197,196.063 350.5,198.5C 350.167,199.5 349.5,200.167 348.5,200.5C 345.687,197.554 343.354,194.221 341.5,190.5C 345.542,187.444 349.542,184.444 353.5,181.5 Z"/></g>
<g><path style="opacity:0.95" fill="#ff8c87" d="M 159.5,180.5 C 160.756,180.461 161.756,180.961 162.5,182C 160.833,184.333 159.167,186.667 157.5,189C 158.579,189.956 159.745,190.789 161,191.5C 162.121,188.164 164.287,186.164 167.5,185.5C 166.874,188.315 165.54,190.815 163.5,193C 166.534,194.191 168.201,196.358 168.5,199.5C 167.448,199.649 166.448,199.483 165.5,199C 161.279,196.063 157.279,192.896 153.5,189.5C 155.526,186.482 157.526,183.482 159.5,180.5 Z"/></g>
<g><path style="opacity:0.473" fill="#fbaead" d="M 291.5,222.5 C 292.309,224.028 292.976,225.694 293.5,227.5C 291.744,226.448 291.077,224.781 291.5,222.5 Z"/></g>
<g><path style="opacity:0.349" fill="#fbb5b4" d="M 342.5,236.5 C 343.404,237.209 343.737,238.209 343.5,239.5C 342.209,239.737 341.209,239.404 340.5,238.5C 341.833,238.5 342.5,237.833 342.5,236.5 Z"/></g>
<g><path style="opacity:0.998" fill="#f75954" d="M 240.5,281.5 C 239.957,281.56 239.624,281.893 239.5,282.5C 240.325,283.386 241.325,283.719 242.5,283.5C 250.561,285.013 258.561,286.846 266.5,289C 269.673,292.832 268.839,294.999 264,295.5C 247.82,292.497 231.986,288.33 216.5,283C 211.369,279.109 209.035,273.943 209.5,267.5C 198.516,265.379 187.682,262.712 177,259.5C 177.721,273.664 182.055,286.664 190,298.5C 194.048,302.88 197.715,307.546 201,312.5C 200.622,330.158 200.622,347.825 201,365.5C 216.415,355.542 231.915,345.708 247.5,336C 288.363,338.165 318.196,321.331 337,285.5C 339.618,279.028 341.618,272.362 343,265.5C 347.881,262.202 350.381,263.536 350.5,269.5C 339.473,314.025 311.139,338.858 265.5,344C 260.783,344.476 256.117,344.476 251.5,344C 233.462,355.684 215.129,366.851 196.5,377.5C 193.267,377.1 191.6,375.266 191.5,372C 192.636,352.854 192.803,333.687 192,314.5C 177.887,299.271 170.054,281.271 168.5,260.5C 168.5,259.167 168.5,257.833 168.5,256.5C 167.167,256.5 165.833,256.5 164.5,256.5C 150.747,253.782 137.081,250.616 123.5,247C 118.494,243.766 118.828,240.933 124.5,238.5C 153.429,245.274 182.262,252.274 211,259.5C 214.486,252.994 219.986,249.328 227.5,248.5C 243.556,251.806 259.389,255.806 275,260.5C 276.031,263.856 274.864,265.856 271.5,266.5C 263.349,264.421 255.183,262.421 247,260.5C 246.5,260.833 246,261.167 245.5,261.5C 246.374,263.747 246.708,266.08 246.5,268.5C 254.189,270.172 261.856,272.005 269.5,274C 273.492,276.902 273.158,279.402 268.5,281.5C 260.795,279.657 253.129,277.657 245.5,275.5C 244.291,277.941 242.624,279.941 240.5,281.5 Z M 224.5,256.5 C 237.379,256.613 241.546,262.613 237,274.5C 230.284,281.404 223.951,281.071 218,273.5C 215.159,265.858 217.325,260.191 224.5,256.5 Z"/></g>
<g><path style="opacity:0.886" fill="#fea4a0" d="M 164.5,256.5 C 165.833,256.5 167.167,256.5 168.5,256.5C 168.5,257.833 168.5,259.167 168.5,260.5C 167.596,259.791 167.263,258.791 167.5,257.5C 166.209,257.737 165.209,257.404 164.5,256.5 Z"/></g>
<g><path style="opacity:0.596" fill="#fdb6b5" d="M 240.5,281.5 C 241.167,282.167 241.833,282.833 242.5,283.5C 241.325,283.719 240.325,283.386 239.5,282.5C 239.624,281.893 239.957,281.56 240.5,281.5 Z"/></g>
</svg>
